<?xml version="1.0" encoding="UTF-8" standalone="no"?>
<!DOCTYPE svg PUBLIC "-//W3C//DTD SVG 1.1//EN" "http://www.w3.org/Graphics/SVG/1.1/DTD/svg11.dtd">
<svg width="100%" height="100%" viewBox="0 0 959 252" version="1.1" xmlns="http://www.w3.org/2000/svg" xmlns:xlink="http://www.w3.org/1999/xlink" xml:space="preserve" xmlns:serif="http://www.serif.com/" style="fill-rule:evenodd;clip-rule:evenodd;stroke-linejoin:round;stroke-miterlimit:2;">
    <g transform="matrix(1,0,0,1,-79,-272.118)">
        <g transform="matrix(0.827177,0,0,0.835113,-354.929,180.214)">
            <path d="M753.1,110.05L752.35,110.05C722.51,110.05 696.12,125.84 680.94,149.14C665.76,125.84 639.37,110.05 609.53,110.05L608.78,110.05C562.476,110.491 524.615,148.694 524.59,195C524.59,222.81 536.77,262.27 560.52,294.74C605.77,356.61 680.94,410.74 680.94,410.74C680.94,410.74 756.11,356.62 801.35,294.74C825.11,262.27 837.28,222.81 837.28,195C837.255,148.698 799.4,110.497 753.1,110.05ZM742.37,299.5C735.429,299.474 729.184,295.161 726.7,288.68L708.86,288.68C706.458,288.665 704.317,287.117 703.55,284.84L698.07,268.33L680.73,328.92C680.038,331.309 677.837,332.966 675.35,332.97L675,332.97C672.399,332.844 670.22,330.9 669.8,328.33L651.93,220.85L638.87,284.45C638.256,286.928 636.013,288.682 633.46,288.68L608.33,288.68C608.251,288.683 608.172,288.685 608.094,288.685C605.027,288.685 602.504,286.162 602.504,283.095C602.504,280.028 605.027,277.505 608.094,277.505C608.172,277.505 608.251,277.507 608.33,277.51L629.06,277.51L647.56,192C648.164,189.487 650.43,187.7 653.015,187.7C655.773,187.7 658.142,189.734 658.56,192.46L676.81,302.1L692.35,247.89C693.013,245.552 695.15,243.917 697.58,243.89L697.69,243.89C700.094,243.891 702.24,245.445 702.99,247.73L712.9,277.54L726.48,277.54C728.737,270.683 735.181,266.02 742.4,266.02C751.594,266.02 759.16,273.586 759.16,282.78C759.16,291.974 751.594,299.54 742.4,299.54L742.37,299.5Z" style="fill:rgb(1,144,171);fill-rule:nonzero;"/>
        </g>
        <g transform="matrix(13.0626,0,0,13.0626,-4761.41,-5760.78)">
            <g>
                <g transform="matrix(1,0,0,1,393.377,474.698)">
                    <g transform="matrix(12,0,0,12,0,0)">
                        <path d="M0.034,-0.083C0.027,-0.092 0.024,-0.104 0.025,-0.119C0.026,-0.134 0.034,-0.146 0.051,-0.157C0.062,-0.164 0.073,-0.167 0.085,-0.166C0.097,-0.165 0.109,-0.158 0.12,-0.147C0.139,-0.128 0.16,-0.113 0.181,-0.102C0.202,-0.091 0.229,-0.086 0.261,-0.086C0.271,-0.087 0.282,-0.088 0.294,-0.091C0.306,-0.093 0.317,-0.098 0.326,-0.107C0.335,-0.115 0.339,-0.128 0.339,-0.145C0.339,-0.16 0.334,-0.171 0.324,-0.18C0.314,-0.189 0.301,-0.196 0.284,-0.202C0.268,-0.208 0.25,-0.214 0.23,-0.219C0.209,-0.225 0.188,-0.232 0.167,-0.239C0.145,-0.246 0.125,-0.256 0.107,-0.268C0.089,-0.279 0.074,-0.295 0.063,-0.314C0.052,-0.333 0.046,-0.358 0.046,-0.387C0.046,-0.42 0.055,-0.449 0.074,-0.472C0.093,-0.495 0.117,-0.513 0.147,-0.526C0.176,-0.539 0.207,-0.545 0.24,-0.545C0.261,-0.545 0.282,-0.543 0.305,-0.538C0.328,-0.533 0.349,-0.525 0.37,-0.514C0.391,-0.502 0.408,-0.488 0.422,-0.47C0.429,-0.46 0.434,-0.448 0.435,-0.434C0.436,-0.42 0.43,-0.407 0.416,-0.396C0.406,-0.388 0.394,-0.385 0.381,-0.386C0.368,-0.387 0.357,-0.391 0.348,-0.399C0.337,-0.414 0.322,-0.425 0.303,-0.434C0.283,-0.443 0.262,-0.447 0.237,-0.447C0.227,-0.447 0.216,-0.446 0.204,-0.444C0.193,-0.441 0.183,-0.436 0.174,-0.429C0.165,-0.421 0.161,-0.409 0.161,-0.392C0.161,-0.377 0.166,-0.365 0.176,-0.356C0.186,-0.346 0.2,-0.339 0.217,-0.334C0.234,-0.328 0.252,-0.322 0.271,-0.317C0.291,-0.312 0.311,-0.305 0.332,-0.298C0.353,-0.291 0.372,-0.281 0.389,-0.269C0.406,-0.257 0.42,-0.242 0.431,-0.223C0.442,-0.203 0.447,-0.179 0.447,-0.15C0.447,-0.116 0.437,-0.087 0.417,-0.063C0.397,-0.039 0.372,-0.021 0.342,-0.009C0.312,0.004 0.281,0.01 0.25,0.01C0.211,0.01 0.171,0.003 0.132,-0.011C0.093,-0.024 0.06,-0.048 0.034,-0.083Z" style="fill:rgb(1,144,171);fill-rule:nonzero;"/>
                    </g>
                    <g transform="matrix(12,0,0,12,5.784,0)">
                        <path d="M0.462,-0.535C0.479,-0.535 0.494,-0.529 0.505,-0.518C0.516,-0.506 0.522,-0.491 0.522,-0.474L0.522,-0.049C0.522,0.012 0.51,0.061 0.488,0.097C0.465,0.134 0.434,0.16 0.395,0.176C0.356,0.192 0.313,0.2 0.265,0.2C0.244,0.2 0.221,0.198 0.197,0.195C0.173,0.192 0.153,0.187 0.138,0.18C0.118,0.171 0.104,0.16 0.097,0.147C0.089,0.134 0.087,0.121 0.092,0.106C0.098,0.087 0.108,0.073 0.121,0.066C0.134,0.059 0.148,0.059 0.163,0.064C0.174,0.067 0.188,0.072 0.205,0.079C0.222,0.086 0.242,0.09 0.265,0.09C0.296,0.09 0.321,0.086 0.342,0.077C0.362,0.069 0.377,0.055 0.388,0.035C0.398,0.016 0.403,-0.011 0.403,-0.045L0.403,-0.112L0.424,-0.088C0.413,-0.066 0.399,-0.048 0.382,-0.034C0.365,-0.019 0.344,-0.008 0.321,-0.001C0.298,0.006 0.271,0.01 0.241,0.01C0.206,0.01 0.175,0.002 0.149,-0.015C0.122,-0.031 0.102,-0.054 0.087,-0.083C0.072,-0.112 0.065,-0.145 0.065,-0.182L0.065,-0.474C0.065,-0.491 0.071,-0.506 0.082,-0.518C0.093,-0.529 0.108,-0.535 0.125,-0.535C0.142,-0.535 0.157,-0.529 0.168,-0.518C0.179,-0.506 0.185,-0.491 0.185,-0.474L0.185,-0.218C0.185,-0.175 0.195,-0.144 0.214,-0.127C0.233,-0.109 0.259,-0.1 0.293,-0.1C0.316,-0.1 0.336,-0.105 0.352,-0.114C0.368,-0.123 0.38,-0.136 0.389,-0.154C0.398,-0.171 0.402,-0.193 0.402,-0.218L0.402,-0.474C0.402,-0.491 0.408,-0.506 0.419,-0.518C0.43,-0.529 0.445,-0.535 0.462,-0.535Z" style="fill:rgb(1,144,171);fill-rule:nonzero;"/>
                    </g>
                </g>
                <g transform="matrix(1,0,0,1,406.085,474.698)">
                    <g transform="matrix(12,0,0,12,0,0)">
                        <path d="M0.034,-0.083C0.027,-0.092 0.024,-0.104 0.025,-0.119C0.026,-0.134 0.034,-0.146 0.051,-0.157C0.062,-0.164 0.073,-0.167 0.085,-0.166C0.097,-0.165 0.109,-0.158 0.12,-0.147C0.139,-0.128 0.16,-0.113 0.181,-0.102C0.202,-0.091 0.229,-0.086 0.261,-0.086C0.271,-0.087 0.282,-0.088 0.294,-0.091C0.306,-0.093 0.317,-0.098 0.326,-0.107C0.335,-0.115 0.339,-0.128 0.339,-0.145C0.339,-0.16 0.334,-0.171 0.324,-0.18C0.314,-0.189 0.301,-0.196 0.284,-0.202C0.268,-0.208 0.25,-0.214 0.23,-0.219C0.209,-0.225 0.188,-0.232 0.167,-0.239C0.145,-0.246 0.125,-0.256 0.107,-0.268C0.089,-0.279 0.074,-0.295 0.063,-0.314C0.052,-0.333 0.046,-0.358 0.046,-0.387C0.046,-0.42 0.055,-0.449 0.074,-0.472C0.093,-0.495 0.117,-0.513 0.147,-0.526C0.176,-0.539 0.207,-0.545 0.24,-0.545C0.261,-0.545 0.282,-0.543 0.305,-0.538C0.328,-0.533 0.349,-0.525 0.37,-0.514C0.391,-0.502 0.408,-0.488 0.422,-0.47C0.429,-0.46 0.434,-0.448 0.435,-0.434C0.436,-0.42 0.43,-0.407 0.416,-0.396C0.406,-0.388 0.394,-0.385 0.381,-0.386C0.368,-0.387 0.357,-0.391 0.348,-0.399C0.337,-0.414 0.322,-0.425 0.303,-0.434C0.283,-0.443 0.262,-0.447 0.237,-0.447C0.227,-0.447 0.216,-0.446 0.204,-0.444C0.193,-0.441 0.183,-0.436 0.174,-0.429C0.165,-0.421 0.161,-0.409 0.161,-0.392C0.161,-0.377 0.166,-0.365 0.176,-0.356C0.186,-0.346 0.2,-0.339 0.217,-0.334C0.234,-0.328 0.252,-0.322 0.271,-0.317C0.291,-0.312 0.311,-0.305 0.332,-0.298C0.353,-0.291 0.372,-0.281 0.389,-0.269C0.406,-0.257 0.42,-0.242 0.431,-0.223C0.442,-0.203 0.447,-0.179 0.447,-0.15C0.447,-0.116 0.437,-0.087 0.417,-0.063C0.397,-0.039 0.372,-0.021 0.342,-0.009C0.312,0.004 0.281,0.01 0.25,0.01C0.211,0.01 0.171,0.003 0.132,-0.011C0.093,-0.024 0.06,-0.048 0.034,-0.083Z" style="fill:rgb(1,144,171);fill-rule:nonzero;"/>
                    </g>
                    <g transform="matrix(12,0,0,12,5.784,0)">
                        <path d="M0.195,-0.061C0.195,-0.044 0.189,-0.029 0.178,-0.018C0.166,-0.006 0.151,-0 0.134,-0C0.117,-0 0.103,-0.006 0.092,-0.018C0.081,-0.029 0.075,-0.044 0.075,-0.061L0.075,-0.679C0.075,-0.696 0.081,-0.711 0.093,-0.723C0.104,-0.734 0.119,-0.74 0.136,-0.74C0.153,-0.74 0.168,-0.734 0.179,-0.723C0.19,-0.711 0.195,-0.696 0.195,-0.679L0.195,-0.061Z" style="fill:rgb(1,144,171);fill-rule:nonzero;"/>
                    </g>
                    <g transform="matrix(12,0,0,12,9.024,0)">
                        <path d="M0.498,-0.545C0.515,-0.545 0.53,-0.539 0.541,-0.528C0.552,-0.517 0.558,-0.502 0.558,-0.484L0.558,-0.061C0.558,-0.044 0.552,-0.029 0.541,-0.018C0.53,-0.006 0.515,-0 0.498,-0C0.481,-0 0.466,-0.006 0.455,-0.018C0.444,-0.029 0.438,-0.044 0.438,-0.061L0.438,-0.11L0.46,-0.101C0.46,-0.092 0.455,-0.082 0.446,-0.07C0.437,-0.057 0.424,-0.045 0.408,-0.033C0.392,-0.021 0.373,-0.011 0.352,-0.003C0.33,0.006 0.306,0.01 0.281,0.01C0.235,0.01 0.193,-0.002 0.156,-0.025C0.119,-0.049 0.089,-0.082 0.068,-0.124C0.046,-0.165 0.035,-0.213 0.035,-0.267C0.035,-0.322 0.046,-0.37 0.068,-0.411C0.089,-0.453 0.118,-0.486 0.155,-0.509C0.192,-0.533 0.232,-0.545 0.277,-0.545C0.306,-0.545 0.332,-0.541 0.356,-0.532C0.38,-0.523 0.401,-0.512 0.419,-0.499C0.436,-0.486 0.45,-0.472 0.46,-0.459C0.469,-0.445 0.474,-0.433 0.474,-0.424L0.438,-0.411L0.438,-0.484C0.438,-0.501 0.444,-0.516 0.455,-0.528C0.466,-0.539 0.481,-0.545 0.498,-0.545ZM0.296,-0.1C0.325,-0.1 0.351,-0.107 0.373,-0.122C0.395,-0.137 0.412,-0.157 0.425,-0.182C0.437,-0.207 0.443,-0.236 0.443,-0.267C0.443,-0.299 0.437,-0.328 0.425,-0.353C0.412,-0.378 0.395,-0.398 0.373,-0.413C0.351,-0.428 0.325,-0.435 0.296,-0.435C0.267,-0.435 0.242,-0.428 0.22,-0.413C0.198,-0.398 0.181,-0.378 0.169,-0.353C0.156,-0.328 0.15,-0.299 0.15,-0.267C0.15,-0.236 0.156,-0.207 0.169,-0.182C0.181,-0.157 0.198,-0.137 0.22,-0.122C0.242,-0.107 0.267,-0.1 0.296,-0.1Z" style="fill:rgb(1,144,171);fill-rule:nonzero;"/>
                    </g>
                </g>
                <g transform="matrix(1,0,0,1,422.465,474.698)">
                    <g transform="matrix(12,0,0,12,0,0)">
                        <path d="M0.462,-0.535C0.479,-0.535 0.494,-0.529 0.505,-0.518C0.516,-0.506 0.522,-0.491 0.522,-0.474L0.522,-0.22C0.522,-0.149 0.502,-0.093 0.463,-0.052C0.424,-0.011 0.367,0.01 0.293,0.01C0.219,0.01 0.163,-0.011 0.124,-0.052C0.085,-0.093 0.065,-0.149 0.065,-0.22L0.065,-0.474C0.065,-0.491 0.071,-0.506 0.082,-0.518C0.093,-0.529 0.108,-0.535 0.125,-0.535C0.142,-0.535 0.157,-0.529 0.168,-0.518C0.179,-0.506 0.185,-0.491 0.185,-0.474L0.185,-0.22C0.185,-0.179 0.194,-0.149 0.212,-0.13C0.23,-0.11 0.257,-0.1 0.293,-0.1C0.33,-0.1 0.357,-0.11 0.375,-0.13C0.393,-0.149 0.402,-0.179 0.402,-0.22L0.402,-0.474C0.402,-0.491 0.408,-0.506 0.419,-0.518C0.43,-0.529 0.445,-0.535 0.462,-0.535Z" style="fill:rgb(1,144,171);fill-rule:nonzero;"/>
                    </g>
                    <g transform="matrix(12,0,0,12,7.044,0)">
                        <path d="M0.498,-0.74C0.515,-0.74 0.53,-0.734 0.541,-0.723C0.552,-0.712 0.558,-0.697 0.558,-0.679L0.558,-0.061C0.558,-0.044 0.552,-0.029 0.541,-0.018C0.53,-0.006 0.515,-0 0.498,-0C0.481,-0 0.466,-0.006 0.455,-0.018C0.444,-0.029 0.438,-0.044 0.438,-0.061L0.438,-0.11L0.46,-0.101C0.46,-0.092 0.455,-0.082 0.446,-0.07C0.437,-0.057 0.424,-0.045 0.408,-0.033C0.392,-0.021 0.373,-0.011 0.352,-0.003C0.33,0.006 0.306,0.01 0.281,0.01C0.235,0.01 0.193,-0.002 0.156,-0.025C0.119,-0.049 0.089,-0.082 0.068,-0.124C0.046,-0.165 0.035,-0.213 0.035,-0.267C0.035,-0.322 0.046,-0.37 0.068,-0.411C0.089,-0.453 0.118,-0.486 0.155,-0.509C0.192,-0.533 0.232,-0.545 0.277,-0.545C0.306,-0.545 0.332,-0.541 0.356,-0.532C0.38,-0.523 0.401,-0.512 0.419,-0.499C0.436,-0.486 0.45,-0.472 0.46,-0.459C0.469,-0.445 0.474,-0.433 0.474,-0.424L0.438,-0.411L0.438,-0.679C0.438,-0.696 0.444,-0.711 0.455,-0.723C0.466,-0.734 0.481,-0.74 0.498,-0.74ZM0.296,-0.1C0.325,-0.1 0.351,-0.107 0.373,-0.122C0.395,-0.137 0.412,-0.157 0.425,-0.182C0.437,-0.207 0.443,-0.236 0.443,-0.267C0.443,-0.299 0.437,-0.328 0.425,-0.353C0.412,-0.378 0.395,-0.398 0.373,-0.413C0.351,-0.428 0.325,-0.435 0.296,-0.435C0.267,-0.435 0.242,-0.428 0.22,-0.413C0.198,-0.398 0.181,-0.378 0.169,-0.353C0.156,-0.328 0.15,-0.299 0.15,-0.267C0.15,-0.236 0.156,-0.207 0.169,-0.182C0.181,-0.157 0.198,-0.137 0.22,-0.122C0.242,-0.107 0.267,-0.1 0.296,-0.1Z" style="fill:rgb(1,144,171);fill-rule:nonzero;"/>
                    </g>
                    <g transform="matrix(12,0,0,12,14.52,0)">
                        <path d="M0.579,-0.267C0.579,-0.212 0.567,-0.164 0.543,-0.123C0.518,-0.081 0.486,-0.048 0.445,-0.025C0.404,-0.002 0.358,0.01 0.307,0.01C0.256,0.01 0.211,-0.002 0.17,-0.025C0.129,-0.048 0.096,-0.081 0.071,-0.123C0.047,-0.164 0.035,-0.212 0.035,-0.267C0.035,-0.322 0.047,-0.37 0.071,-0.411C0.096,-0.453 0.129,-0.486 0.17,-0.509C0.211,-0.533 0.256,-0.545 0.307,-0.545C0.358,-0.545 0.404,-0.533 0.445,-0.509C0.486,-0.486 0.518,-0.453 0.543,-0.411C0.567,-0.37 0.579,-0.322 0.579,-0.267ZM0.459,-0.267C0.459,-0.301 0.452,-0.331 0.439,-0.356C0.425,-0.381 0.406,-0.4 0.384,-0.414C0.361,-0.428 0.335,-0.435 0.307,-0.435C0.279,-0.435 0.254,-0.428 0.231,-0.414C0.207,-0.4 0.189,-0.381 0.175,-0.356C0.162,-0.331 0.155,-0.301 0.155,-0.267C0.155,-0.234 0.162,-0.204 0.175,-0.18C0.189,-0.155 0.207,-0.135 0.231,-0.121C0.254,-0.107 0.279,-0.1 0.307,-0.1C0.335,-0.1 0.361,-0.107 0.384,-0.121C0.406,-0.135 0.425,-0.155 0.439,-0.18C0.452,-0.204 0.459,-0.234 0.459,-0.267Z" style="fill:rgb(1,144,171);fill-rule:nonzero;"/>
                    </g>
                </g>
            </g>
        </g>
    </g>
</svg>
