<?xml version="1.0" encoding="UTF-8" standalone="no"?>
<!DOCTYPE svg PUBLIC "-//W3C//DTD SVG 1.1//EN" "http://www.w3.org/Graphics/SVG/1.1/DTD/svg11.dtd">
<svg width="100%" height="100%" viewBox="0 0 313 301" version="1.1" xmlns="http://www.w3.org/2000/svg" xmlns:xlink="http://www.w3.org/1999/xlink" xml:space="preserve" xmlns:serif="http://www.serif.com/" style="fill-rule:evenodd;clip-rule:evenodd;stroke-linejoin:round;stroke-miterlimit:2;">
    <g transform="matrix(1,0,0,1,-524.59,-110.05)">
        <path d="M753.1,110.05L752.35,110.05C722.51,110.05 696.12,125.84 680.94,149.14C665.76,125.84 639.37,110.05 609.53,110.05L608.78,110.05C562.476,110.491 524.615,148.694 524.59,195C524.59,222.81 536.77,262.27 560.52,294.74C605.77,356.61 680.94,410.74 680.94,410.74C680.94,410.74 756.11,356.62 801.35,294.74C825.11,262.27 837.28,222.81 837.28,195C837.255,148.698 799.4,110.497 753.1,110.05ZM742.37,299.5C735.429,299.474 729.184,295.161 726.7,288.68L708.86,288.68C706.458,288.665 704.317,287.117 703.55,284.84L698.07,268.33L680.73,328.92C680.038,331.309 677.837,332.966 675.35,332.97L675,332.97C672.399,332.844 670.22,330.9 669.8,328.33L651.93,220.85L638.87,284.45C638.256,286.928 636.013,288.682 633.46,288.68L608.33,288.68C608.251,288.683 608.172,288.685 608.094,288.685C605.027,288.685 602.504,286.162 602.504,283.095C602.504,280.028 605.027,277.505 608.094,277.505C608.172,277.505 608.251,277.507 608.33,277.51L629.06,277.51L647.56,192C648.164,189.487 650.43,187.7 653.015,187.7C655.773,187.7 658.142,189.734 658.56,192.46L676.81,302.1L692.35,247.89C693.013,245.552 695.15,243.917 697.58,243.89L697.69,243.89C700.094,243.891 702.24,245.445 702.99,247.73L712.9,277.54L726.48,277.54C728.737,270.683 735.181,266.02 742.4,266.02C751.594,266.02 759.16,273.586 759.16,282.78C759.16,291.974 751.594,299.54 742.4,299.54L742.37,299.5Z" style="fill:rgb(1,144,171);fill-rule:nonzero;"/>
    </g>
</svg>
